<?xml version="1.0" encoding="UTF-8"?>
<svg id="Lager_2" data-name="Lager 2" xmlns="http://www.w3.org/2000/svg" viewBox="0 0 1338.62 137.43">
  <defs>
    <style>
      .cls-1 {
        fill: #fff;
        fill-rule: evenodd;
      }
    </style>
  </defs>
  <g id="Lager_1-2" data-name="Lager 1">
    <path class="cls-1" d="m297.98,137.26L342.75,0h67.63l45.54,137.26h-51.5l-8.56-24.73h-40.46l-8.59,24.73h-48.83Zm78.73-106.86l-19.54,54.39h37.54l-17.99-54.39Zm494.13,106.92L915.62.06h67.62l45.56,137.26h-51.51l-8.55-24.73h-40.47l-8.59,24.73h-48.83,0Zm78.73-106.86l-19.53,54.39h37.54l-18-54.39Zm-481.88,106.8V0h97.36c10.99,0,19.93,3.92,26.97,8.73,7.02,4.79,13.05,10.98,15.45,19.4,3.41,11.94,2.65,21.55.39,28.13-2.28,6.59-6.23,12.12-11.88,16.55s-10.35,7.91-20.91,10.45c4.07,4.14,4.04,4.31,8.84,7.71,6.55,4.63,12.59,5.29,34.98,5.38h38.51v40.91l-38.77.1c-42.2.11-57.05-.22-65.14-7.48-10.17-9.12-21.22-19.8-36.58-37.96v45.33h-49.23Zm49.22-103.06v25.31h34.31c1.83,0,3.84-.68,5.96-2.05,2.13-1.36,3.28-4.8,3.41-10.32-.32-5.26-1.61-8.73-3.83-10.42-2.23-1.68-4.12-2.53-5.6-2.53h-34.25,0ZM1338.62.06h-100.45c-17.34,0-27.67,8.47-30.94,25.47-3.26,16.96,6.05,35.6,27.95,55.87,13.27,10.55,10.97,15.55-6.8,15.03h-23.35v-.06h-12.38c-22.4-.11-28.44-.76-34.98-5.39-4.81-3.41-4.78-3.57-8.84-7.71,10.55-2.53,15.26-6.02,20.91-10.45s9.62-9.96,11.88-16.55c2.26-6.58,3.02-16.19-.39-28.13-2.4-8.42-8.43-14.61-15.44-19.4-7.04-4.81-15.98-8.73-26.97-8.73h-97.36v137.26h49.22v-45.33c15.35,18.16,26.41,28.84,36.58,37.96,8.08,7.26,22.93,7.81,65.14,7.48l7.32-.06h0s72.43.01,72.43.01c19.59-3.31,29.61-13.44,30-30.44.35-16.97-9.46-34.67-30-52.47-11.22-9.72-8.99-13.5,7.17-13.5h59.32V.06h0Zm-247.96,34.14v25.31h34.31c1.85,0,3.83-.68,5.95-2.05,2.13-1.36,3.28-4.8,3.41-10.32-.32-5.26-1.61-8.73-3.83-10.42-2.23-1.68-4.11-2.53-5.59-2.53h-34.26ZM108.13,0C90.78,0,80.49,8.47,77.2,25.47c-3.26,16.97,5.52,36.21,27.93,55.87,12.74,11.18,10.98,15.03-6.79,15.03H0v40.89h142.09c19.88,0,29.64-13.44,30-30.44.36-16.96-9.62-34.46-30-52.47-11.39-9.51-8.98-13.99,7.18-13.49h60.97v96.41h44.29V40.86h61.83V0H108.13ZM757.69,0l-12.18,40.78L731.99,0h-50.8l44.78,137.26h43.87l15.03-45.86,15.01,45.86h43.87L888.51,0h-50.8l-13.52,40.78L812.01,0h-54.32,0Z"/>
  </g>
</svg>